<svg width="37" height="24" viewBox="0 0 37 24" fill="none" xmlns="http://www.w3.org/2000/svg">
<path d="M15.2358 10.8H16.4358V12.0001H15.2358V10.8Z" fill="white"/>
<path d="M17.6357 10.8H18.8357V12.0001H17.6357V10.8Z" fill="white"/>
<path d="M20.0356 10.8H21.2357V12.0001H20.0356V10.8Z" fill="white"/>
<path d="M15.2358 13.2H16.4358V14.4H15.2358V13.2Z" fill="white"/>
<path d="M17.6357 13.2H18.8357V14.4H17.6357V13.2Z" fill="white"/>
<path d="M20.0356 13.2H21.2357V14.4H20.0356V13.2Z" fill="white"/>
<path d="M15.2358 15.6H16.4358V16.8H15.2358V15.6Z" fill="white"/>
<path d="M17.6357 15.6H18.8357V16.8H17.6357V15.6Z" fill="white"/>
<path d="M20.0356 15.6H21.2357V16.8H20.0356V15.6Z" fill="white"/>
<path d="M15.2358 6H16.4358V7.20001H15.2358V6Z" fill="white"/>
<path d="M17.6357 6H18.8357V7.20001H17.6357V6Z" fill="white"/>
<path d="M20.0356 6H21.2357V7.20001H20.0356V6Z" fill="white"/>
<path d="M15.2358 8.40002H16.4358V9.60004H15.2358V8.40002Z" fill="white"/>
<path d="M17.6357 8.40002H18.8357V9.60004H17.6357V8.40002Z" fill="white"/>
<path d="M20.0356 8.40002H21.2357V9.60004H20.0356V8.40002Z" fill="white"/>
<path d="M9.83594 8.40002H11.6359V9.60004H9.83594V8.40002Z" fill="white"/>
<path d="M9.83594 11.4H11.6359V12.6H9.83594V11.4Z" fill="white"/>
<path d="M9.83594 14.4H11.6359V15.6H9.83594V14.4Z" fill="white"/>
<path d="M9.83594 17.4H11.6359V18.6H9.83594V17.4Z" fill="white"/>
<path d="M33.8358 16.2H32.6358C31.9993 16.2 31.3889 16.4529 30.9388 16.9029C30.4887 17.353 30.2358 17.9635 30.2358 18.6V19.836C29.8032 19.9051 29.3924 20.0735 29.0358 20.328V17.4H27.8358V20.4H23.6358V6.60001H27.8358V16.2H29.0358V6C29.0358 5.84087 28.9726 5.68825 28.8601 5.57573C28.7476 5.46321 28.595 5.39999 28.4358 5.39999H23.6358V2.39999C23.6358 2.24086 23.5726 2.08826 23.4601 1.97574C23.3476 1.86322 23.195 1.8 23.0358 1.8H21.2358V0.600006C21.2358 0.521213 21.2203 0.443187 21.1902 0.370392C21.16 0.297596 21.1158 0.231451 21.0601 0.175735C21.0044 0.12002 20.9382 0.0758224 20.8654 0.0456696C20.7927 0.0155167 20.7146 0 20.6358 0H15.8358C15.6767 0 15.5241 0.0632136 15.4116 0.175735C15.2991 0.288257 15.2358 0.440876 15.2358 0.600006V1.8H13.4358C13.2767 1.8 13.1241 1.86322 13.0116 1.97574C12.8991 2.08826 12.8358 2.24086 12.8358 2.39999V5.39999H8.03584C7.87671 5.39999 7.7241 5.46321 7.61158 5.57573C7.49905 5.68825 7.43584 5.84087 7.43584 6V9.60001H8.63584V6.60001H12.8358V20.4H8.63584V10.8H7.43584V20.327C7.07923 20.0725 6.66848 19.9041 6.23584 19.835V18.6C6.23584 17.9635 5.98298 17.353 5.5329 16.9029C5.08281 16.4529 4.47236 16.2 3.83584 16.2H2.63584C1.99932 16.2 1.38887 16.4529 0.938784 16.9029C0.488696 17.353 0.23584 17.9635 0.23584 18.6V23.4C0.23584 23.5591 0.299053 23.7117 0.411575 23.8243C0.524097 23.9368 0.67671 24 0.83584 24H35.6358C35.795 24 35.9476 23.9368 36.0601 23.8243C36.1726 23.7117 36.2358 23.5591 36.2358 23.4V18.6C36.2358 17.9635 35.983 17.353 35.5329 16.9029C35.0828 16.4529 34.4724 16.2 33.8358 16.2ZM16.4358 1.2H20.0358V3.60001H16.4358V1.2ZM1.43584 18.6C1.43584 18.2817 1.56227 17.9765 1.78731 17.7515C2.01236 17.5264 2.31758 17.4 2.63584 17.4H3.83584C4.1541 17.4 4.45932 17.5264 4.68437 17.7515C4.90941 17.9765 5.03584 18.2817 5.03584 18.6V19.836C4.36695 19.944 3.75826 20.2863 3.31859 20.8018C2.87891 21.3174 2.63691 21.9724 2.63584 22.65V22.8H1.43584V18.6ZM3.83584 22.8V22.65C3.83637 22.2125 4.01038 21.7932 4.3197 21.4839C4.62902 21.1745 5.0484 21.0005 5.48584 21H5.78584C6.22328 21.0005 6.64266 21.1745 6.95198 21.4839C7.2613 21.7932 7.43531 22.2125 7.43584 22.65V22.8H3.83584ZM8.63584 21.6H12.8358V22.8H8.63584V21.6ZM14.0358 3H15.2358V4.2C15.2358 4.35913 15.2991 4.51175 15.4116 4.62427C15.5241 4.73679 15.6767 4.8 15.8358 4.8H20.6358C20.7146 4.8 20.7927 4.78449 20.8654 4.75433C20.9382 4.72418 21.0044 4.67998 21.0601 4.62427C21.1158 4.56855 21.16 4.50241 21.1902 4.42961C21.2203 4.35682 21.2358 4.27879 21.2358 4.2V3H22.4358V22.8H20.6358V18.6C20.6358 18.4409 20.5726 18.2883 20.4601 18.1757C20.3476 18.0632 20.195 18 20.0358 18H16.4358C16.2767 18 16.1241 18.0632 16.0116 18.1757C15.8991 18.2883 15.8358 18.4409 15.8358 18.6V22.8H14.0358V3ZM17.0358 22.8V19.2H19.4358V22.8H17.0358ZM23.6358 21.6H27.8358V22.8H23.6358V21.6ZM29.0358 22.8V22.65C29.0364 22.2125 29.2104 21.7932 29.5197 21.4839C29.829 21.1745 30.2484 21.0005 30.6858 21H30.9858C31.4233 21.0005 31.8427 21.1745 32.152 21.4839C32.4613 21.7932 32.6353 22.2125 32.6358 22.65V22.8H29.0358ZM35.0358 22.8H33.8358V22.65C33.8348 21.9724 33.5928 21.3174 33.1531 20.8018C32.7134 20.2863 32.1047 19.944 31.4358 19.836V18.6C31.4358 18.2817 31.5623 17.9765 31.7873 17.7515C32.0124 17.5264 32.3176 17.4 32.6358 17.4H33.8358C34.1541 17.4 34.4593 17.5264 34.6844 17.7515C34.9094 17.9765 35.0358 18.2817 35.0358 18.6V22.8Z" fill="white"/>
<path d="M24.8359 14.4H26.6359V15.6H24.8359V14.4Z" fill="white"/>
<path d="M24.8359 17.4H26.6359V18.6H24.8359V17.4Z" fill="white"/>
<path d="M24.8359 8.40002H26.6359V9.60004H24.8359V8.40002Z" fill="white"/>
<path d="M24.8359 11.4H26.6359V12.6H24.8359V11.4Z" fill="white"/>
</svg>
